<?xml version="1.0" standalone="no"?>
<!DOCTYPE svg PUBLIC "-//W3C//DTD SVG 20010904//EN"
 "http://www.w3.org/TR/2001/REC-SVG-20010904/DTD/svg10.dtd">
<svg version="1.0" xmlns="http://www.w3.org/2000/svg"
 width="32.000000pt" height="32.000000pt" viewBox="0 0 32.000000 32.000000"
 preserveAspectRatio="xMidYMid meet">

<g transform="translate(0.000000,32.000000) scale(0.100000,-0.100000)"
fill="#000000" stroke="none">
<path d="M0 295 c0 -22 4 -25 38 -25 55 0 82 -23 82 -70 0 -46 -18 -60 -79
-60 -37 0 -41 -2 -41 -25 0 -24 3 -25 60 -25 57 0 60 -1 60 -25 0 -24 -3 -25
-60 -25 -53 0 -60 -2 -60 -20 0 -19 7 -20 160 -20 l160 0 -1 160 0 160 -160 0
-159 0 0 -25z m240 -44 c0 -11 -9 -23 -21 -26 -28 -9 -22 -49 9 -53 29 -4 29
-30 0 -34 -31 -4 -39 -48 -9 -48 14 0 21 -6 21 -18 0 -27 -8 -32 -41 -20 -34
12 -39 28 -36 123 2 63 4 71 27 82 35 18 50 16 50 -6z m54 11 c3 -5 -1 -9 -9
-9 -8 0 -12 4 -9 9 3 4 7 8 9 8 2 0 6 -4 9 -8z m2 -43 c0 -9 -6 -15 -13 -12
-7 3 -13 11 -13 17 0 7 6 13 13 13 7 0 13 -8 13 -18z m-3 -69 c3 -11 1 -20 -4
-20 -5 0 -9 9 -9 20 0 11 2 20 4 20 2 0 6 -9 9 -20z m4 -36 c-3 -3 -12 -4 -19
-1 -8 3 -5 6 6 6 11 1 17 -2 13 -5z"/>
<path d="M0 200 c0 -30 2 -31 38 -28 32 3 37 6 37 28 0 22 -5 25 -37 28 -36 3
-38 2 -38 -28z"/>
</g>
</svg>
